%TF.GenerationSoftware,KiCad,Pcbnew,8.0.4*%
%TF.CreationDate,2024-07-28T12:52:59-07:00*%
%TF.ProjectId,pace 5268ac,70616365-2035-4323-9638-61632e6b6963,rev?*%
%TF.SameCoordinates,Original*%
%TF.FileFunction,Copper,L2,Bot*%
%TF.FilePolarity,Positive*%
%FSLAX46Y46*%
G04 Gerber Fmt 4.6, Leading zero omitted, Abs format (unit mm)*
G04 Created by KiCad (PCBNEW 8.0.4) date 2024-07-28 12:52:59*
%MOMM*%
%LPD*%
G01*
G04 APERTURE LIST*
%TA.AperFunction,ComponentPad*%
%ADD10O,1.700000X1.700000*%
%TD*%
%TA.AperFunction,ComponentPad*%
%ADD11R,1.700000X1.700000*%
%TD*%
%TA.AperFunction,SMDPad,CuDef*%
%ADD12R,0.610000X1.880000*%
%TD*%
%TA.AperFunction,Conductor*%
%ADD13C,0.200000*%
%TD*%
G04 APERTURE END LIST*
D10*
%TO.P,J2,8,Pin_8*%
%TO.N,Net-(J2-Pin_8)*%
X95142000Y-102376000D03*
%TO.P,J2,7,Pin_7*%
%TO.N,Net-(J2-Pin_7)*%
X97682000Y-102376000D03*
%TO.P,J2,6,Pin_6*%
%TO.N,Net-(J2-Pin_6)*%
X100222000Y-102376000D03*
%TO.P,J2,5,Pin_5*%
%TO.N,Net-(J2-Pin_5)*%
X102762000Y-102376000D03*
%TO.P,J2,4,Pin_4*%
%TO.N,Net-(J2-Pin_4)*%
X105302000Y-102376000D03*
%TO.P,J2,3,Pin_3*%
%TO.N,unconnected-(J2-Pin_3-Pad3)*%
X107842000Y-102376000D03*
%TO.P,J2,2,Pin_2*%
%TO.N,Net-(J2-Pin_2)*%
X110382000Y-102376000D03*
D11*
%TO.P,J2,1,Pin_1*%
%TO.N,Net-(J2-Pin_1)*%
X112922000Y-102376000D03*
%TD*%
D10*
%TO.P,J1,8,Pin_8*%
%TO.N,Net-(J1-Pin_8)*%
X95142000Y-87376000D03*
%TO.P,J1,7,Pin_7*%
%TO.N,Net-(J1-Pin_7)*%
X97682000Y-87376000D03*
%TO.P,J1,6,Pin_6*%
%TO.N,Net-(J1-Pin_6)*%
X100222000Y-87376000D03*
%TO.P,J1,5,Pin_5*%
%TO.N,Net-(J1-Pin_5)*%
X102762000Y-87376000D03*
%TO.P,J1,4,Pin_4*%
%TO.N,Net-(J1-Pin_4)*%
X105302000Y-87376000D03*
%TO.P,J1,3,Pin_3*%
%TO.N,unconnected-(J1-Pin_3-Pad3)*%
X107842000Y-87376000D03*
%TO.P,J1,2,Pin_2*%
%TO.N,Net-(J1-Pin_2)*%
X110382000Y-87376000D03*
D11*
%TO.P,J1,1,Pin_1*%
%TO.N,Net-(J1-Pin_1)*%
X112922000Y-87376000D03*
%TD*%
D12*
%TO.P,J0,16,16*%
%TO.N,Net-(J1-Pin_8)*%
X100764500Y-91433500D03*
%TO.P,J0,15,15*%
%TO.N,Net-(J2-Pin_8)*%
X100764500Y-98494500D03*
%TO.P,J0,14,14*%
%TO.N,Net-(J1-Pin_7)*%
X101764500Y-91433500D03*
%TO.P,J0,13,13*%
%TO.N,Net-(J2-Pin_7)*%
X101764500Y-98494500D03*
%TO.P,J0,12,12*%
%TO.N,Net-(J1-Pin_6)*%
X102764500Y-91433500D03*
%TO.P,J0,11,11*%
%TO.N,Net-(J2-Pin_6)*%
X102764500Y-98494500D03*
%TO.P,J0,10,10*%
%TO.N,Net-(J1-Pin_5)*%
X103764500Y-91433500D03*
%TO.P,J0,9,9*%
%TO.N,Net-(J2-Pin_5)*%
X103764500Y-98494500D03*
%TO.P,J0,8,8*%
%TO.N,Net-(J1-Pin_4)*%
X104764500Y-91433500D03*
%TO.P,J0,7,7*%
%TO.N,Net-(J2-Pin_4)*%
X104764500Y-98494500D03*
%TO.P,J0,4,4*%
%TO.N,Net-(J1-Pin_2)*%
X106764500Y-91433500D03*
%TO.P,J0,3,3*%
%TO.N,Net-(J2-Pin_2)*%
X106764500Y-98494500D03*
%TO.P,J0,2,2*%
%TO.N,Net-(J1-Pin_1)*%
X107764500Y-91433500D03*
%TO.P,J0,1,1*%
%TO.N,Net-(J2-Pin_1)*%
X107764500Y-98494500D03*
%TD*%
D13*
%TO.N,Net-(J2-Pin_6)*%
X102764500Y-98494500D02*
X102764500Y-99833500D01*
X102764500Y-99833500D02*
X100222000Y-102376000D01*
%TO.N,Net-(J1-Pin_4)*%
X104764500Y-91433500D02*
X104764500Y-87913500D01*
X104764500Y-87913500D02*
X105302000Y-87376000D01*
%TO.N,Net-(J1-Pin_1)*%
X107764500Y-91433500D02*
X108864500Y-91433500D01*
X108864500Y-91433500D02*
X112922000Y-87376000D01*
%TO.N,Net-(J2-Pin_8)*%
X100764500Y-98494500D02*
X99023500Y-98494500D01*
X99023500Y-98494500D02*
X95142000Y-102376000D01*
%TO.N,Net-(J2-Pin_7)*%
X99182000Y-100876000D02*
X97682000Y-102376000D01*
X101764500Y-99634500D02*
X100523000Y-100876000D01*
X100523000Y-100876000D02*
X99182000Y-100876000D01*
X101764500Y-98494500D02*
X101764500Y-99634500D01*
%TO.N,Net-(J1-Pin_2)*%
X106764500Y-91433500D02*
X106764500Y-90293500D01*
X109682000Y-87376000D02*
X110382000Y-87376000D01*
X106764500Y-90293500D02*
X109682000Y-87376000D01*
%TO.N,Net-(J1-Pin_7)*%
X98552000Y-87376000D02*
X97682000Y-87376000D01*
X101764500Y-90588500D02*
X98552000Y-87376000D01*
X101764500Y-91433500D02*
X101764500Y-90588500D01*
%TO.N,Net-(J1-Pin_5)*%
X103764500Y-88378500D02*
X102762000Y-87376000D01*
X103764500Y-91433500D02*
X103764500Y-88378500D01*
%TO.N,Net-(J2-Pin_1)*%
X109040500Y-98494500D02*
X112922000Y-102376000D01*
X107764500Y-98494500D02*
X109040500Y-98494500D01*
%TO.N,Net-(J2-Pin_5)*%
X103764500Y-101373500D02*
X102762000Y-102376000D01*
X103764500Y-98494500D02*
X103764500Y-101373500D01*
%TO.N,Net-(J2-Pin_2)*%
X109506000Y-102376000D02*
X110382000Y-102376000D01*
X106764500Y-98494500D02*
X106764500Y-99634500D01*
X106764500Y-99634500D02*
X109506000Y-102376000D01*
%TO.N,Net-(J1-Pin_6)*%
X102764500Y-91433500D02*
X102764500Y-89918500D01*
X102764500Y-89918500D02*
X100222000Y-87376000D01*
%TO.N,Net-(J1-Pin_8)*%
X100764500Y-91433500D02*
X99199500Y-91433500D01*
X99199500Y-91433500D02*
X95142000Y-87376000D01*
%TO.N,Net-(J2-Pin_4)*%
X104764500Y-98494500D02*
X104764500Y-101838500D01*
X104764500Y-101838500D02*
X105302000Y-102376000D01*
%TD*%
M02*
