%TF.GenerationSoftware,KiCad,Pcbnew,8.0.4*%
%TF.CreationDate,2024-07-28T12:52:59-07:00*%
%TF.ProjectId,pace 5268ac,70616365-2035-4323-9638-61632e6b6963,rev?*%
%TF.SameCoordinates,Original*%
%TF.FileFunction,Legend,Bot*%
%TF.FilePolarity,Positive*%
%FSLAX46Y46*%
G04 Gerber Fmt 4.6, Leading zero omitted, Abs format (unit mm)*
G04 Created by KiCad (PCBNEW 8.0.4) date 2024-07-28 12:52:59*
%MOMM*%
%LPD*%
G01*
G04 APERTURE LIST*
%ADD10C,0.250000*%
%ADD11C,0.150000*%
%ADD12C,0.254000*%
G04 APERTURE END LIST*
D10*
X112591619Y-90804571D02*
X113591619Y-91042666D01*
X113591619Y-91042666D02*
X112877333Y-91233142D01*
X112877333Y-91233142D02*
X113591619Y-91423618D01*
X113591619Y-91423618D02*
X112591619Y-91661714D01*
X113591619Y-92471237D02*
X113067809Y-92471237D01*
X113067809Y-92471237D02*
X112972571Y-92423618D01*
X112972571Y-92423618D02*
X112924952Y-92328380D01*
X112924952Y-92328380D02*
X112924952Y-92137904D01*
X112924952Y-92137904D02*
X112972571Y-92042666D01*
X113544000Y-92471237D02*
X113591619Y-92375999D01*
X113591619Y-92375999D02*
X113591619Y-92137904D01*
X113591619Y-92137904D02*
X113544000Y-92042666D01*
X113544000Y-92042666D02*
X113448761Y-91995047D01*
X113448761Y-91995047D02*
X113353523Y-91995047D01*
X113353523Y-91995047D02*
X113258285Y-92042666D01*
X113258285Y-92042666D02*
X113210666Y-92137904D01*
X113210666Y-92137904D02*
X113210666Y-92375999D01*
X113210666Y-92375999D02*
X113163047Y-92471237D01*
X112924952Y-92852190D02*
X113591619Y-93090285D01*
X112924952Y-93328380D02*
X113591619Y-93090285D01*
X113591619Y-93090285D02*
X113829714Y-92995047D01*
X113829714Y-92995047D02*
X113877333Y-92947428D01*
X113877333Y-92947428D02*
X113924952Y-92852190D01*
X112591619Y-93614095D02*
X113591619Y-93852190D01*
X113591619Y-93852190D02*
X112877333Y-94042666D01*
X112877333Y-94042666D02*
X113591619Y-94233142D01*
X113591619Y-94233142D02*
X112591619Y-94471238D01*
X113591619Y-95280761D02*
X113067809Y-95280761D01*
X113067809Y-95280761D02*
X112972571Y-95233142D01*
X112972571Y-95233142D02*
X112924952Y-95137904D01*
X112924952Y-95137904D02*
X112924952Y-94947428D01*
X112924952Y-94947428D02*
X112972571Y-94852190D01*
X113544000Y-95280761D02*
X113591619Y-95185523D01*
X113591619Y-95185523D02*
X113591619Y-94947428D01*
X113591619Y-94947428D02*
X113544000Y-94852190D01*
X113544000Y-94852190D02*
X113448761Y-94804571D01*
X113448761Y-94804571D02*
X113353523Y-94804571D01*
X113353523Y-94804571D02*
X113258285Y-94852190D01*
X113258285Y-94852190D02*
X113210666Y-94947428D01*
X113210666Y-94947428D02*
X113210666Y-95185523D01*
X113210666Y-95185523D02*
X113163047Y-95280761D01*
X112924952Y-95661714D02*
X113591619Y-95899809D01*
X112924952Y-96137904D02*
X113591619Y-95899809D01*
X113591619Y-95899809D02*
X113829714Y-95804571D01*
X113829714Y-95804571D02*
X113877333Y-95756952D01*
X113877333Y-95756952D02*
X113924952Y-95661714D01*
X112591619Y-96423619D02*
X113591619Y-96661714D01*
X113591619Y-96661714D02*
X112877333Y-96852190D01*
X112877333Y-96852190D02*
X113591619Y-97042666D01*
X113591619Y-97042666D02*
X112591619Y-97280762D01*
X113591619Y-98090285D02*
X113067809Y-98090285D01*
X113067809Y-98090285D02*
X112972571Y-98042666D01*
X112972571Y-98042666D02*
X112924952Y-97947428D01*
X112924952Y-97947428D02*
X112924952Y-97756952D01*
X112924952Y-97756952D02*
X112972571Y-97661714D01*
X113544000Y-98090285D02*
X113591619Y-97995047D01*
X113591619Y-97995047D02*
X113591619Y-97756952D01*
X113591619Y-97756952D02*
X113544000Y-97661714D01*
X113544000Y-97661714D02*
X113448761Y-97614095D01*
X113448761Y-97614095D02*
X113353523Y-97614095D01*
X113353523Y-97614095D02*
X113258285Y-97661714D01*
X113258285Y-97661714D02*
X113210666Y-97756952D01*
X113210666Y-97756952D02*
X113210666Y-97995047D01*
X113210666Y-97995047D02*
X113163047Y-98090285D01*
X112924952Y-98471238D02*
X113591619Y-98709333D01*
X112924952Y-98947428D02*
X113591619Y-98709333D01*
X113591619Y-98709333D02*
X113829714Y-98614095D01*
X113829714Y-98614095D02*
X113877333Y-98566476D01*
X113877333Y-98566476D02*
X113924952Y-98471238D01*
D11*
X94686309Y-100267077D02*
X95688191Y-100267077D01*
X95688191Y-100267077D02*
X94972561Y-99933117D01*
X94972561Y-99933117D02*
X95688191Y-99599156D01*
X95688191Y-99599156D02*
X94686309Y-99599156D01*
X95211104Y-99122069D02*
X95211104Y-98788109D01*
X94686309Y-98644983D02*
X94686309Y-99122069D01*
X94686309Y-99122069D02*
X95688191Y-99122069D01*
X95688191Y-99122069D02*
X95688191Y-98644983D01*
X94781726Y-97643100D02*
X94734018Y-97690809D01*
X94734018Y-97690809D02*
X94686309Y-97833935D01*
X94686309Y-97833935D02*
X94686309Y-97929352D01*
X94686309Y-97929352D02*
X94734018Y-98072478D01*
X94734018Y-98072478D02*
X94829435Y-98167896D01*
X94829435Y-98167896D02*
X94924852Y-98215604D01*
X94924852Y-98215604D02*
X95115687Y-98263313D01*
X95115687Y-98263313D02*
X95258813Y-98263313D01*
X95258813Y-98263313D02*
X95449648Y-98215604D01*
X95449648Y-98215604D02*
X95545065Y-98167896D01*
X95545065Y-98167896D02*
X95640482Y-98072478D01*
X95640482Y-98072478D02*
X95688191Y-97929352D01*
X95688191Y-97929352D02*
X95688191Y-97833935D01*
X95688191Y-97833935D02*
X95640482Y-97690809D01*
X95640482Y-97690809D02*
X95592774Y-97643100D01*
X94686309Y-96688927D02*
X94686309Y-97261431D01*
X94686309Y-96975179D02*
X95688191Y-96975179D01*
X95688191Y-96975179D02*
X95545065Y-97070596D01*
X95545065Y-97070596D02*
X95449648Y-97166014D01*
X95449648Y-97166014D02*
X95401939Y-97261431D01*
X95067978Y-96259549D02*
X95067978Y-95496211D01*
X94686309Y-94494329D02*
X94686309Y-95066833D01*
X94686309Y-94780581D02*
X95688191Y-94780581D01*
X95688191Y-94780581D02*
X95545065Y-94875998D01*
X95545065Y-94875998D02*
X95449648Y-94971416D01*
X95449648Y-94971416D02*
X95401939Y-95066833D01*
X95688191Y-93874117D02*
X95688191Y-93778699D01*
X95688191Y-93778699D02*
X95640482Y-93683282D01*
X95640482Y-93683282D02*
X95592774Y-93635573D01*
X95592774Y-93635573D02*
X95497356Y-93587865D01*
X95497356Y-93587865D02*
X95306522Y-93540156D01*
X95306522Y-93540156D02*
X95067978Y-93540156D01*
X95067978Y-93540156D02*
X94877144Y-93587865D01*
X94877144Y-93587865D02*
X94781726Y-93635573D01*
X94781726Y-93635573D02*
X94734018Y-93683282D01*
X94734018Y-93683282D02*
X94686309Y-93778699D01*
X94686309Y-93778699D02*
X94686309Y-93874117D01*
X94686309Y-93874117D02*
X94734018Y-93969534D01*
X94734018Y-93969534D02*
X94781726Y-94017243D01*
X94781726Y-94017243D02*
X94877144Y-94064951D01*
X94877144Y-94064951D02*
X95067978Y-94112660D01*
X95067978Y-94112660D02*
X95306522Y-94112660D01*
X95306522Y-94112660D02*
X95497356Y-94064951D01*
X95497356Y-94064951D02*
X95592774Y-94017243D01*
X95592774Y-94017243D02*
X95640482Y-93969534D01*
X95640482Y-93969534D02*
X95688191Y-93874117D01*
X95258813Y-92967652D02*
X95306522Y-93063070D01*
X95306522Y-93063070D02*
X95354230Y-93110778D01*
X95354230Y-93110778D02*
X95449648Y-93158487D01*
X95449648Y-93158487D02*
X95497356Y-93158487D01*
X95497356Y-93158487D02*
X95592774Y-93110778D01*
X95592774Y-93110778D02*
X95640482Y-93063070D01*
X95640482Y-93063070D02*
X95688191Y-92967652D01*
X95688191Y-92967652D02*
X95688191Y-92776818D01*
X95688191Y-92776818D02*
X95640482Y-92681400D01*
X95640482Y-92681400D02*
X95592774Y-92633692D01*
X95592774Y-92633692D02*
X95497356Y-92585983D01*
X95497356Y-92585983D02*
X95449648Y-92585983D01*
X95449648Y-92585983D02*
X95354230Y-92633692D01*
X95354230Y-92633692D02*
X95306522Y-92681400D01*
X95306522Y-92681400D02*
X95258813Y-92776818D01*
X95258813Y-92776818D02*
X95258813Y-92967652D01*
X95258813Y-92967652D02*
X95211104Y-93063070D01*
X95211104Y-93063070D02*
X95163396Y-93110778D01*
X95163396Y-93110778D02*
X95067978Y-93158487D01*
X95067978Y-93158487D02*
X94877144Y-93158487D01*
X94877144Y-93158487D02*
X94781726Y-93110778D01*
X94781726Y-93110778D02*
X94734018Y-93063070D01*
X94734018Y-93063070D02*
X94686309Y-92967652D01*
X94686309Y-92967652D02*
X94686309Y-92776818D01*
X94686309Y-92776818D02*
X94734018Y-92681400D01*
X94734018Y-92681400D02*
X94781726Y-92633692D01*
X94781726Y-92633692D02*
X94877144Y-92585983D01*
X94877144Y-92585983D02*
X95067978Y-92585983D01*
X95067978Y-92585983D02*
X95163396Y-92633692D01*
X95163396Y-92633692D02*
X95211104Y-92681400D01*
X95211104Y-92681400D02*
X95258813Y-92776818D01*
X95067978Y-92156605D02*
X95067978Y-91393267D01*
X95688191Y-90725346D02*
X95688191Y-90629928D01*
X95688191Y-90629928D02*
X95640482Y-90534511D01*
X95640482Y-90534511D02*
X95592774Y-90486802D01*
X95592774Y-90486802D02*
X95497356Y-90439094D01*
X95497356Y-90439094D02*
X95306522Y-90391385D01*
X95306522Y-90391385D02*
X95067978Y-90391385D01*
X95067978Y-90391385D02*
X94877144Y-90439094D01*
X94877144Y-90439094D02*
X94781726Y-90486802D01*
X94781726Y-90486802D02*
X94734018Y-90534511D01*
X94734018Y-90534511D02*
X94686309Y-90629928D01*
X94686309Y-90629928D02*
X94686309Y-90725346D01*
X94686309Y-90725346D02*
X94734018Y-90820763D01*
X94734018Y-90820763D02*
X94781726Y-90868472D01*
X94781726Y-90868472D02*
X94877144Y-90916180D01*
X94877144Y-90916180D02*
X95067978Y-90963889D01*
X95067978Y-90963889D02*
X95306522Y-90963889D01*
X95306522Y-90963889D02*
X95497356Y-90916180D01*
X95497356Y-90916180D02*
X95592774Y-90868472D01*
X95592774Y-90868472D02*
X95640482Y-90820763D01*
X95640482Y-90820763D02*
X95688191Y-90725346D01*
X95592774Y-90009716D02*
X95640482Y-89962007D01*
X95640482Y-89962007D02*
X95688191Y-89866590D01*
X95688191Y-89866590D02*
X95688191Y-89628047D01*
X95688191Y-89628047D02*
X95640482Y-89532629D01*
X95640482Y-89532629D02*
X95592774Y-89484921D01*
X95592774Y-89484921D02*
X95497356Y-89437212D01*
X95497356Y-89437212D02*
X95401939Y-89437212D01*
X95401939Y-89437212D02*
X95258813Y-89484921D01*
X95258813Y-89484921D02*
X94686309Y-90057425D01*
X94686309Y-90057425D02*
X94686309Y-89437212D01*
D12*
%TO.C,J0*%
X111034500Y-99814000D02*
X97494500Y-99814000D01*
X111034500Y-90114000D02*
X111034500Y-99814000D01*
X97494500Y-99814000D02*
X97494500Y-90114000D01*
X97494500Y-90114000D02*
X111034500Y-90114000D01*
%TD*%
M02*
